<svg width="139" height="125" viewBox="0 0 139 125" fill="none" xmlns="http://www.w3.org/2000/svg">
<g clip-path="url(#clip0_4669_9867)">
<g clip-path="url(#clip1_4669_9867)">
<path d="M26.875 0.636719H21.25V6.26172H26.875V0.636719Z" fill="#CB8A9C"/>
<path d="M32.5 0.636719H26.875V6.26172H32.5V0.636719Z" fill="#CB8A9C"/>
<path d="M100 0.636719H94.375V6.26172H100V0.636719Z" fill="#CB8A9C"/>
<path d="M105.625 0.636719H100V6.26172H105.625V0.636719Z" fill="#CB8A9C"/>
<path d="M111.25 0.636719H105.625V6.26172H111.25V0.636719Z" fill="#CB8A9C"/>
<path d="M15.625 6.26172H10V11.8867H15.625V6.26172Z" fill="#CB8A9C"/>
<path d="M21.25 6.26172H15.625V11.8867H21.25V6.26172Z" fill="#F2A8BC"/>
<path d="M26.875 6.26172H21.25V11.8867H26.875V6.26172Z" fill="#F2A8BC"/>
<path d="M32.5 6.26172H26.875V11.8867H32.5V6.26172Z" fill="#F2A8BC"/>
<path d="M38.125 6.26172H32.5V11.8867H38.125V6.26172Z" fill="#CB8A9C"/>
<path d="M55 6.26172H49.375V11.8867H55V6.26172Z" fill="#161723"/>
<path d="M60.625 6.26172H55V11.8867H60.625V6.26172Z" fill="#161723"/>
<path d="M66.25 6.26172H60.625V11.8867H66.25V6.26172Z" fill="#161723"/>
<path d="M71.875 6.26172H66.25V11.8867H71.875V6.26172Z" fill="#161723"/>
<path d="M77.5 6.26172H71.875V11.8867H77.5V6.26172Z" fill="#161723"/>
<path d="M83.125 6.26172H77.5V11.8867H83.125V6.26172Z" fill="#161723"/>
<path d="M88.75 6.26172H83.125V11.8867H88.75V6.26172Z" fill="#161723"/>
<path d="M94.375 6.26172H88.75V11.8867H94.375V6.26172Z" fill="#CB8A9C"/>
<path d="M100 6.26172H94.375V11.8867H100V6.26172Z" fill="#F2A8BC"/>
<path d="M105.625 6.26172H100V11.8867H105.625V6.26172Z" fill="#F2A8BC"/>
<path d="M111.25 6.26172H105.625V11.8867H111.25V6.26172Z" fill="#F2A8BC"/>
<path d="M116.875 6.26172H111.25V11.8867H116.875V6.26172Z" fill="#CB8A9C"/>
<path d="M15.625 11.8867H10V17.5117H15.625V11.8867Z" fill="#CB8A9C"/>
<path d="M21.25 11.8867H15.625V17.5117H21.25V11.8867Z" fill="#F2A8BC"/>
<path d="M26.875 11.8867H21.25V17.5117H26.875V11.8867Z" fill="#F2A8BC"/>
<path d="M32.5 11.8867H26.875V17.5117H32.5V11.8867Z" fill="#CB8A9C"/>
<path d="M43.75 11.8867H38.125V17.5117H43.75V11.8867Z" fill="#161723"/>
<path d="M49.375 11.8867H43.75V17.5117H49.375V11.8867Z" fill="#161723"/>
<path d="M55 11.8867H49.375V17.5117H55V11.8867Z" fill="#323345"/>
<path d="M60.625 11.8867H55V17.5117H60.625V11.8867Z" fill="#323345"/>
<path d="M66.25 11.8867H60.625V17.5117H66.25V11.8867Z" fill="#323345"/>
<path d="M71.875 11.8867H66.25V17.5117H71.875V11.8867Z" fill="#202130"/>
<path d="M77.5 11.8867H71.875V17.5117H77.5V11.8867Z" fill="#202130"/>
<path d="M83.125 11.8867H77.5V17.5117H83.125V11.8867Z" fill="#202130"/>
<path d="M88.75 11.8867H83.125V17.5117H88.75V11.8867Z" fill="#323345"/>
<path d="M94.375 11.8867H88.75V17.5117H94.375V11.8867Z" fill="#323345"/>
<path d="M100 11.8867H94.375V17.5117H100V11.8867Z" fill="#CB8A9C"/>
<path d="M105.625 11.8867H100V17.5117H105.625V11.8867Z" fill="#F2A8BC"/>
<path d="M111.25 11.8867H105.625V17.5117H111.25V11.8867Z" fill="#F2A8BC"/>
<path d="M116.875 11.8867H111.25V17.5117H116.875V11.8867Z" fill="#CB8A9C"/>
<path d="M122.5 11.8867H116.875V17.5117H122.5V11.8867Z" fill="#161723"/>
<path d="M15.625 17.5117H10V23.1367H15.625V17.5117Z" fill="#CB8A9C"/>
<path d="M21.25 17.5117H15.625V23.1367H21.25V17.5117Z" fill="#F2A8BC"/>
<path d="M26.875 17.5117H21.25V23.1367H26.875V17.5117Z" fill="#F2A8BC"/>
<path d="M32.5 17.5117H26.875V23.1367H32.5V17.5117Z" fill="#161723"/>
<path d="M38.125 17.5117H32.5V23.1367H38.125V17.5117Z" fill="#161723"/>
<path d="M43.75 17.5117H38.125V23.1367H43.75V17.5117Z" fill="#323345"/>
<path d="M49.375 17.5117H43.75V23.1367H49.375V17.5117Z" fill="#323345"/>
<path d="M55 17.5117H49.375V23.1367H55V17.5117Z" fill="#202130"/>
<path d="M60.625 17.5117H55V23.1367H60.625V17.5117Z" fill="#323345"/>
<path d="M66.25 17.5117H60.625V23.1367H66.25V17.5117Z" fill="#202130"/>
<path d="M71.875 17.5117H66.25V23.1367H71.875V17.5117Z" fill="#323345"/>
<path d="M77.5 17.5117H71.875V23.1367H77.5V17.5117Z" fill="#323345"/>
<path d="M83.125 17.5117H77.5V23.1367H83.125V17.5117Z" fill="#323345"/>
<path d="M88.75 17.5117H83.125V23.1367H88.75V17.5117Z" fill="#202130"/>
<path d="M94.375 17.5117H88.75V23.1367H94.375V17.5117Z" fill="#202130"/>
<path d="M100 17.5117H94.375V23.1367H100V17.5117Z" fill="#CB8A9C"/>
<path d="M105.625 17.5117H100V23.1367H105.625V17.5117Z" fill="#F2A8BC"/>
<path d="M111.25 17.5117H105.625V23.1367H111.25V17.5117Z" fill="#F2A8BC"/>
<path d="M116.875 17.5117H111.25V23.1367H116.875V17.5117Z" fill="#CB8A9C"/>
<path d="M122.5 17.5117H116.875V23.1367H122.5V17.5117Z" fill="#323345"/>
<path d="M128.125 17.5117H122.5V23.1367H128.125V17.5117Z" fill="#161723"/>
<path d="M15.625 23.1367H10V28.7617H15.625V23.1367Z" fill="#323345"/>
<path d="M21.25 23.1367H15.625V28.7617H21.25V23.1367Z" fill="#CB8A9C"/>
<path d="M26.875 23.1367H21.25V28.7617H26.875V23.1367Z" fill="#202130"/>
<path d="M32.5 23.1367H26.875V28.7617H32.5V23.1367Z" fill="#323345"/>
<path d="M38.125 23.1367H32.5V28.7617H38.125V23.1367Z" fill="#323345"/>
<path d="M43.75 23.1367H38.125V28.7617H43.75V23.1367Z" fill="#323345"/>
<path d="M49.375 23.1367H43.75V28.7617H49.375V23.1367Z" fill="#323345"/>
<path d="M55 23.1367H49.375V28.7617H55V23.1367Z" fill="#323345"/>
<path d="M60.625 23.1367H55V28.7617H60.625V23.1367Z" fill="#323345"/>
<path d="M66.25 23.1367H60.625V28.7617H66.25V23.1367Z" fill="#323345"/>
<path d="M71.875 23.1367H66.25V28.7617H71.875V23.1367Z" fill="#323345"/>
<path d="M77.5 23.1367H71.875V28.7617H77.5V23.1367Z" fill="#323345"/>
<path d="M83.125 23.1367H77.5V28.7617H83.125V23.1367Z" fill="#323345"/>
<path d="M88.75 23.1367H83.125V28.7617H88.75V23.1367Z" fill="#323345"/>
<path d="M94.375 23.1367H88.75V28.7617H94.375V23.1367Z" fill="#323345"/>
<path d="M100 23.1367H94.375V28.7617H100V23.1367Z" fill="#202130"/>
<path d="M105.625 23.1367H100V28.7617H105.625V23.1367Z" fill="#CB8A9C"/>
<path d="M111.25 23.1367H105.625V28.7617H111.25V23.1367Z" fill="#CB8A9C"/>
<path d="M116.875 23.1367H111.25V28.7617H116.875V23.1367Z" fill="#323345"/>
<path d="M122.5 23.1367H116.875V28.7617H122.5V23.1367Z" fill="#323345"/>
<path d="M128.125 23.1367H122.5V28.7617H128.125V23.1367Z" fill="#323345"/>
<path d="M133.75 23.1367H128.125V28.7617H133.75V23.1367Z" fill="#161723"/>
<path d="M21.25 28.7617H15.625V34.3867H21.25V28.7617Z" fill="#202130"/>
<path d="M26.875 28.7617H21.25V34.3867H26.875V28.7617Z" fill="#323345"/>
<path d="M32.5 28.7617H26.875V34.3867H32.5V28.7617Z" fill="#323345"/>
<path d="M38.125 28.7617H32.5V34.3867H38.125V28.7617Z" fill="#323345"/>
<path d="M43.75 28.7617H38.125V34.3867H43.75V28.7617Z" fill="#323345"/>
<path d="M49.375 28.7617H43.75V34.3867H49.375V28.7617Z" fill="#323345"/>
<path d="M55 28.7617H49.375V34.3867H55V28.7617Z" fill="#323345"/>
<path d="M60.625 28.7617H55V34.3867H60.625V28.7617Z" fill="#323345"/>
<path d="M66.25 28.7617H60.625V34.3867H66.25V28.7617Z" fill="#202130"/>
<path d="M71.875 28.7617H66.25V34.3867H71.875V28.7617Z" fill="#323345"/>
<path d="M77.5 28.7617H71.875V34.3867H77.5V28.7617Z" fill="#323345"/>
<path d="M83.125 28.7617H77.5V34.3867H83.125V28.7617Z" fill="#323345"/>
<path d="M88.75 28.7617H83.125V34.3867H88.75V28.7617Z" fill="#323345"/>
<path d="M94.375 28.7617H88.75V34.3867H94.375V28.7617Z" fill="#323345"/>
<path d="M100 28.7617H94.375V34.3867H100V28.7617Z" fill="#323345"/>
<path d="M105.625 28.7617H100V34.3867H105.625V28.7617Z" fill="#CB8A9C"/>
<path d="M111.25 28.7617H105.625V34.3867H111.25V28.7617Z" fill="#CB8A9C"/>
<path d="M116.875 28.7617H111.25V34.3867H116.875V28.7617Z" fill="#323345"/>
<path d="M122.5 28.7617H116.875V34.3867H122.5V28.7617Z" fill="#323345"/>
<path d="M128.125 28.7617H122.5V34.3867H128.125V28.7617Z" fill="#323345"/>
<path d="M133.75 28.7617H128.125V34.3867H133.75V28.7617Z" fill="#323345"/>
<path d="M139.375 28.7617H133.75V34.3867H139.375V28.7617Z" fill="#161723"/>
<path d="M15.625 34.3862H10V40.0112H15.625V34.3862Z" fill="#202130"/>
<path d="M21.25 34.3862H15.625V40.0112H21.25V34.3862Z" fill="#323345"/>
<path d="M26.875 34.3862H21.25V40.0112H26.875V34.3862Z" fill="#323345"/>
<path d="M32.5 34.3862H26.875V40.0112H32.5V34.3862Z" fill="#323345"/>
<path d="M38.125 34.3862H32.5V40.0112H38.125V34.3862Z" fill="#323345"/>
<path d="M43.75 34.3862H38.125V40.0112H43.75V34.3862Z" fill="#202130"/>
<path d="M49.375 34.3862H43.75V40.0112H49.375V34.3862Z" fill="#323345"/>
<path d="M55 34.3862H49.375V40.0112H55V34.3862Z" fill="#323345"/>
<path d="M60.625 34.3862H55V40.0112H60.625V34.3862Z" fill="#323345"/>
<path d="M66.25 34.3862H60.625V40.0112H66.25V34.3862Z" fill="#323345"/>
<path d="M71.875 34.3862H66.25V40.0112H71.875V34.3862Z" fill="#202130"/>
<path d="M77.5 34.3862H71.875V40.0112H77.5V34.3862Z" fill="#323345"/>
<path d="M83.125 34.3862H77.5V40.0112H83.125V34.3862Z" fill="#323345"/>
<path d="M88.75 34.3862H83.125V40.0112H88.75V34.3862Z" fill="#323345"/>
<path d="M94.375 34.3862H88.75V40.0112H94.375V34.3862Z" fill="#323345"/>
<path d="M100 34.3862H94.375V40.0112H100V34.3862Z" fill="#323345"/>
<path d="M105.625 34.3862H100V40.0112H105.625V34.3862Z" fill="#CB8A9C"/>
<path d="M111.25 34.3862H105.625V40.0112H111.25V34.3862Z" fill="#F2A8BC"/>
<path d="M116.875 34.3862H111.25V40.0112H116.875V34.3862Z" fill="#CB8A9C"/>
<path d="M122.5 34.3862H116.875V40.0112H122.5V34.3862Z" fill="#323345"/>
<path d="M128.125 34.3862H122.5V40.0112H128.125V34.3862Z" fill="#323345"/>
<path d="M133.75 34.3862H128.125V40.0112H133.75V34.3862Z" fill="#323345"/>
<path d="M139.375 34.3862H133.75V40.0112H139.375V34.3862Z" fill="#161723"/>
<path d="M10 40.0117H4.375V45.6367H10V40.0117Z" fill="#161723"/>
<path d="M15.625 40.0117H10V45.6367H15.625V40.0117Z" fill="#202130"/>
<path d="M21.25 40.0117H15.625V45.6367H21.25V40.0117Z" fill="#323345"/>
<path d="M26.875 40.0117H21.25V45.6367H26.875V40.0117Z" fill="#323345"/>
<path d="M32.5 40.0117H26.875V45.6367H32.5V40.0117Z" fill="#323345"/>
<path d="M38.125 40.0117H32.5V45.6367H38.125V40.0117Z" fill="#202130"/>
<path d="M43.75 40.0117H38.125V45.6367H43.75V40.0117Z" fill="#323345"/>
<path d="M49.375 40.0117H43.75V45.6367H49.375V40.0117Z" fill="#323345"/>
<path d="M55 40.0117H49.375V45.6367H55V40.0117Z" fill="#323345"/>
<path d="M60.625 40.0117H55V45.6367H60.625V40.0117Z" fill="#323345"/>
<path d="M66.25 40.0117H60.625V45.6367H66.25V40.0117Z" fill="#323345"/>
<path d="M71.875 40.0117H66.25V45.6367H71.875V40.0117Z" fill="#202130"/>
<path d="M77.5 40.0117H71.875V45.6367H77.5V40.0117Z" fill="#323345"/>
<path d="M83.125 40.0117H77.5V45.6367H83.125V40.0117Z" fill="#F6F6F6"/>
<path d="M88.75 40.0117H83.125V45.6367H88.75V40.0117Z" fill="#F6F6F6"/>
<path d="M94.375 40.0117H88.75V45.6367H94.375V40.0117Z" fill="#F6F6F6"/>
<path d="M100 40.0117H94.375V45.6367H100V40.0117Z" fill="#323345"/>
<path d="M105.625 40.0117H100V45.6367H105.625V40.0117Z" fill="#CB8A9C"/>
<path d="M111.25 40.0117H105.625V45.6367H111.25V40.0117Z" fill="#F2A8BC"/>
<path d="M116.875 40.0117H111.25V45.6367H116.875V40.0117Z" fill="#F2A8BC"/>
<path d="M122.5 40.0117H116.875V45.6367H122.5V40.0117Z" fill="#CB8A9C"/>
<path d="M128.125 40.0117H122.5V45.6367H128.125V40.0117Z" fill="#323345"/>
<path d="M133.75 40.0117H128.125V45.6367H133.75V40.0117Z" fill="#323345"/>
<path d="M139.375 40.0117H133.75V45.6367H139.375V40.0117Z" fill="#161723"/>
<path d="M10 45.6367H4.375V51.2617H10V45.6367Z" fill="#161723"/>
<path d="M15.625 45.6367H10V51.2617H15.625V45.6367Z" fill="#323345"/>
<path d="M21.25 45.6367H15.625V51.2617H21.25V45.6367Z" fill="#323345"/>
<path d="M26.875 45.6367H21.25V51.2617H26.875V45.6367Z" fill="#323345"/>
<path d="M32.5 45.6367H26.875V51.2617H32.5V45.6367Z" fill="#323345"/>
<path d="M38.125 45.6367H32.5V51.2617H38.125V45.6367Z" fill="#202130"/>
<path d="M43.75 45.6367H38.125V51.2617H43.75V45.6367Z" fill="#323345"/>
<path d="M49.375 45.6367H43.75V51.2617H49.375V45.6367Z" fill="#323345"/>
<path d="M55 45.6367H49.375V51.2617H55V45.6367Z" fill="#323345"/>
<path d="M60.625 45.6367H55V51.2617H60.625V45.6367Z" fill="#323345"/>
<path d="M66.25 45.6367H60.625V51.2617H66.25V45.6367Z" fill="#323345"/>
<path d="M71.875 45.6367H66.25V51.2617H71.875V45.6367Z" fill="#202130"/>
<path d="M77.5 45.6367H71.875V51.2617H77.5V45.6367Z" fill="#323345"/>
<path d="M83.125 45.6367H77.5V51.2617H83.125V45.6367Z" fill="#F6F6F6"/>
<path d="M88.75 45.6367H83.125V51.2617H88.75V45.6367Z" fill="#F6F6F6"/>
<path d="M94.375 45.6367H88.75V51.2617H94.375V45.6367Z" fill="#F6F6F6"/>
<path d="M100 45.6367H94.375V51.2617H100V45.6367Z" fill="#323345"/>
<path d="M105.625 45.6367H100V51.2617H105.625V45.6367Z" fill="#202130"/>
<path d="M111.25 45.6367H105.625V51.2617H111.25V45.6367Z" fill="#CB8A9C"/>
<path d="M116.875 45.6367H111.25V51.2617H116.875V45.6367Z" fill="#F2A8BC"/>
<path d="M122.5 45.6367H116.875V51.2617H122.5V45.6367Z" fill="#F2A8BC"/>
<path d="M128.125 45.6367H122.5V51.2617H128.125V45.6367Z" fill="#CB8A9C"/>
<path d="M133.75 45.6367H128.125V51.2617H133.75V45.6367Z" fill="#323345"/>
<path d="M139.375 45.6367H133.75V51.2617H139.375V45.6367Z" fill="#161723"/>
<path d="M10 51.2617H4.375V56.8867H10V51.2617Z" fill="#161723"/>
<path d="M15.625 51.2617H10V56.8867H15.625V51.2617Z" fill="#323345"/>
<path d="M21.25 51.2617H15.625V56.8867H21.25V51.2617Z" fill="#323345"/>
<path d="M26.875 51.2617H21.25V56.8867H26.875V51.2617Z" fill="#323345"/>
<path d="M32.5 51.2617H26.875V56.8867H32.5V51.2617Z" fill="#323345"/>
<path d="M38.125 51.2617H32.5V56.8867H38.125V51.2617Z" fill="#202130"/>
<path d="M43.75 51.2617H38.125V56.8867H43.75V51.2617Z" fill="#323345"/>
<path d="M49.375 51.2617H43.75V56.8867H49.375V51.2617Z" fill="#323345"/>
<path d="M55 51.2617H49.375V56.8867H55V51.2617Z" fill="#323345"/>
<path d="M60.625 51.2617H55V56.8867H60.625V51.2617Z" fill="#323345"/>
<path d="M66.25 51.2617H60.625V56.8867H66.25V51.2617Z" fill="#323345"/>
<path d="M71.875 51.2617H66.25V56.8867H71.875V51.2617Z" fill="#202130"/>
<path d="M77.5 51.2617H71.875V56.8867H77.5V51.2617Z" fill="#323345"/>
<path d="M83.125 51.2617H77.5V56.8867H83.125V51.2617Z" fill="#F6F6F6"/>
<path d="M88.75 51.2617H83.125V56.8867H88.75V51.2617Z" fill="#F6F6F6"/>
<path d="M94.375 51.2617H88.75V56.8867H94.375V51.2617Z" fill="#323345"/>
<path d="M100 51.2617H94.375V56.8867H100V51.2617Z" fill="#323345"/>
<path d="M105.625 51.2617H100V56.8867H105.625V51.2617Z" fill="#202130"/>
<path d="M111.25 51.2617H105.625V56.8867H111.25V51.2617Z" fill="#CB8A9C"/>
<path d="M116.875 51.2617H111.25V56.8867H116.875V51.2617Z" fill="#F2A8BC"/>
<path d="M122.5 51.2617H116.875V56.8867H122.5V51.2617Z" fill="#F2A8BC"/>
<path d="M128.125 51.2617H122.5V56.8867H128.125V51.2617Z" fill="#CB8A9C"/>
<path d="M133.75 51.2617H128.125V56.8867H133.75V51.2617Z" fill="#161723"/>
<path d="M10 56.8867H4.375V62.5117H10V56.8867Z" fill="#161723"/>
<path d="M15.625 56.8867H10V62.5117H15.625V56.8867Z" fill="#323345"/>
<path d="M21.25 56.8867H15.625V62.5117H21.25V56.8867Z" fill="#323345"/>
<path d="M26.875 56.8867H21.25V62.5117H26.875V56.8867Z" fill="#323345"/>
<path d="M32.5 56.8867H26.875V62.5117H32.5V56.8867Z" fill="#202130"/>
<path d="M38.125 56.8867H32.5V62.5117H38.125V56.8867Z" fill="#202130"/>
<path d="M43.75 56.8867H38.125V62.5117H43.75V56.8867Z" fill="#323345"/>
<path d="M49.375 56.8867H43.75V62.5117H49.375V56.8867Z" fill="#323345"/>
<path d="M55 56.8867H49.375V62.5117H55V56.8867Z" fill="#323345"/>
<path d="M60.625 56.8867H55V62.5117H60.625V56.8867Z" fill="#323345"/>
<path d="M66.25 56.8867H60.625V62.5117H66.25V56.8867Z" fill="#323345"/>
<path d="M71.875 56.8867H66.25V62.5117H71.875V56.8867Z" fill="#202130"/>
<path d="M77.5 56.8867H71.875V62.5117H77.5V56.8867Z" fill="#202130"/>
<path d="M83.125 56.8867H77.5V62.5117H83.125V56.8867Z" fill="#323345"/>
<path d="M88.75 56.8867H83.125V62.5117H88.75V56.8867Z" fill="#202130"/>
<path d="M94.375 56.8867H88.75V62.5117H94.375V56.8867Z" fill="#323345"/>
<path d="M100 56.8867H94.375V62.5117H100V56.8867Z" fill="#323345"/>
<path d="M105.625 56.8867H100V62.5117H105.625V56.8867Z" fill="#202130"/>
<path d="M111.25 56.8867H105.625V62.5117H111.25V56.8867Z" fill="#202130"/>
<path d="M116.875 56.8867H111.25V62.5117H116.875V56.8867Z" fill="#CB8A9C"/>
<path d="M122.5 56.8867H116.875V62.5117H122.5V56.8867Z" fill="#CB8A9C"/>
<path d="M128.125 56.8867H122.5V62.5117H128.125V56.8867Z" fill="#323345"/>
<path d="M133.75 56.8867H128.125V62.5117H133.75V56.8867Z" fill="#161723"/>
<path d="M10 62.5117H4.375V68.1367H10V62.5117Z" fill="#161723"/>
<path d="M15.625 62.5117H10V68.1367H15.625V62.5117Z" fill="#323345"/>
<path d="M21.25 62.5117H15.625V68.1367H21.25V62.5117Z" fill="#323345"/>
<path d="M26.875 62.5117H21.25V68.1367H26.875V62.5117Z" fill="#202130"/>
<path d="M32.5 62.5117H26.875V68.1367H32.5V62.5117Z" fill="#FFF5F3"/>
<path d="M38.125 62.5117H32.5V68.1367H38.125V62.5117Z" fill="#FFF5F3"/>
<path d="M43.75 62.5117H38.125V68.1367H43.75V62.5117Z" fill="#202130"/>
<path d="M49.375 62.5117H43.75V68.1367H49.375V62.5117Z" fill="#323345"/>
<path d="M55 62.5117H49.375V68.1367H55V62.5117Z" fill="#323345"/>
<path d="M60.625 62.5117H55V68.1367H60.625V62.5117Z" fill="#323345"/>
<path d="M66.25 62.5117H60.625V68.1367H66.25V62.5117Z" fill="#202130"/>
<path d="M71.875 62.5117H66.25V68.1367H71.875V62.5117Z" fill="#FFF5F3"/>
<path d="M77.5 62.5117H71.875V68.1367H77.5V62.5117Z" fill="#FFF5F3"/>
<path d="M83.125 62.5117H77.5V68.1367H83.125V62.5117Z" fill="#202130"/>
<path d="M88.75 62.5117H83.125V68.1367H88.75V62.5117Z" fill="#202130"/>
<path d="M94.375 62.5117H88.75V68.1367H94.375V62.5117Z" fill="#323345"/>
<path d="M100 62.5117H94.375V68.1367H100V62.5117Z" fill="#323345"/>
<path d="M105.625 62.5117H100V68.1367H105.625V62.5117Z" fill="#202130"/>
<path d="M111.25 62.5117H105.625V68.1367H111.25V62.5117Z" fill="#202130"/>
<path d="M116.875 62.5117H111.25V68.1367H116.875V62.5117Z" fill="#323345"/>
<path d="M122.5 62.5117H116.875V68.1367H122.5V62.5117Z" fill="#323345"/>
<path d="M128.125 62.5117H122.5V68.1367H128.125V62.5117Z" fill="#161723"/>
<path d="M133.75 62.5117H128.125V68.1367H133.75V62.5117Z" fill="#161723"/>
<path d="M10 68.1367H4.375V73.7617H10V68.1367Z" fill="#161723"/>
<path d="M15.625 68.1367H10V73.7617H15.625V68.1367Z" fill="#202130"/>
<path d="M21.25 68.1367H15.625V73.7617H21.25V68.1367Z" fill="#323345"/>
<path d="M26.875 68.1367H21.25V73.7617H26.875V68.1367Z" fill="#202130"/>
<path d="M32.5 68.1367H26.875V73.7617H32.5V68.1367Z" fill="#1A080D"/>
<path d="M38.125 68.1367H32.5V73.7617H38.125V68.1367Z" fill="#1A080D"/>
<path d="M43.75 68.1367H38.125V73.7617H43.75V68.1367Z" fill="#1A080D"/>
<path d="M49.375 68.1367H43.75V73.7617H49.375V68.1367Z" fill="#202130"/>
<path d="M55 68.1367H49.375V73.7617H55V68.1367Z" fill="#202130"/>
<path d="M60.625 68.1367H55V73.7617H60.625V68.1367Z" fill="#202130"/>
<path d="M66.25 68.1367H60.625V73.7617H66.25V68.1367Z" fill="#1A080D"/>
<path d="M71.875 68.1367H66.25V73.7617H71.875V68.1367Z" fill="#1A080D"/>
<path d="M77.5 68.1367H71.875V73.7617H77.5V68.1367Z" fill="#1A080D"/>
<path d="M83.125 68.1367H77.5V73.7617H83.125V68.1367Z" fill="#FFF5F3"/>
<path d="M88.75 68.1367H83.125V73.7617H88.75V68.1367Z" fill="#202130"/>
<path d="M94.375 68.1367H88.75V73.7617H94.375V68.1367Z" fill="#323345"/>
<path d="M100 68.1367H94.375V73.7617H100V68.1367Z" fill="#323345"/>
<path d="M105.625 68.1367H100V73.7617H105.625V68.1367Z" fill="#202130"/>
<path d="M111.25 68.1367H105.625V73.7617H111.25V68.1367Z" fill="#202130"/>
<path d="M116.875 68.1367H111.25V73.7617H116.875V68.1367Z" fill="#323345"/>
<path d="M122.5 68.1367H116.875V73.7617H122.5V68.1367Z" fill="#323345"/>
<path d="M128.125 68.1367H122.5V73.7617H128.125V68.1367Z" fill="#323345"/>
<path d="M133.75 68.1367H128.125V73.7617H133.75V68.1367Z" fill="#161723"/>
<path d="M15.625 73.7617H10V79.3867H15.625V73.7617Z" fill="#161723"/>
<path d="M21.25 73.7617H15.625V79.3867H21.25V73.7617Z" fill="#202130"/>
<path d="M26.875 73.7617H21.25V79.3867H26.875V73.7617Z" fill="#1A080D"/>
<path d="M32.5 73.7617H26.875V79.3867H32.5V73.7617Z" fill="#D8CED1"/>
<path d="M38.125 73.7617H32.5V79.3867H38.125V73.7617Z" fill="#FFF3F6"/>
<path d="M43.75 73.7617H38.125V79.3867H43.75V73.7617Z" fill="#B1657A"/>
<path d="M49.375 73.7617H43.75V79.3867H49.375V73.7617Z" fill="#FFF5F3"/>
<path d="M55 73.7617H49.375V79.3867H55V73.7617Z" fill="#FFF5F3"/>
<path d="M60.625 73.7617H55V79.3867H60.625V73.7617Z" fill="#FFF5F3"/>
<path d="M66.25 73.7617H60.625V79.3867H66.25V73.7617Z" fill="#D8CED1"/>
<path d="M71.875 73.7617H66.25V79.3867H71.875V73.7617Z" fill="#FFF3F6"/>
<path d="M77.5 73.7617H71.875V79.3867H77.5V73.7617Z" fill="#B1657A"/>
<path d="M83.125 73.7617H77.5V79.3867H83.125V73.7617Z" fill="#1A080D"/>
<path d="M88.75 73.7617H83.125V79.3867H88.75V73.7617Z" fill="#202130"/>
<path d="M94.375 73.7617H88.75V79.3867H94.375V73.7617Z" fill="#323345"/>
<path d="M100 73.7617H94.375V79.3867H100V73.7617Z" fill="#202130"/>
<path d="M105.625 73.7617H100V79.3867H105.625V73.7617Z" fill="#323345"/>
<path d="M111.25 73.7617H105.625V79.3867H111.25V73.7617Z" fill="#202130"/>
<path d="M116.875 73.7617H111.25V79.3867H116.875V73.7617Z" fill="#161723"/>
<path d="M122.5 73.7617H116.875V79.3867H122.5V73.7617Z" fill="#323345"/>
<path d="M128.125 73.7617H122.5V79.3867H128.125V73.7617Z" fill="#323345"/>
<path d="M133.75 73.7617H128.125V79.3867H133.75V73.7617Z" fill="#323345"/>
<path d="M139.375 73.7617H133.75V79.3867H139.375V73.7617Z" fill="#161723"/>
<path d="M10 79.3867H4.375V85.0117H10V79.3867Z" fill="#161723"/>
<path d="M15.625 79.3867H10V85.0117H15.625V79.3867Z" fill="#161723"/>
<path d="M21.25 79.3867H15.625V85.0117H21.25V79.3867Z" fill="#323345"/>
<path d="M26.875 79.3867H21.25V85.0117H26.875V79.3867Z" fill="#1A080D"/>
<path d="M32.5 79.3867H26.875V85.0117H32.5V79.3867Z" fill="#FFEBF1"/>
<path d="M38.125 79.3867H32.5V85.0117H38.125V79.3867Z" fill="#B1657A"/>
<path d="M43.75 79.3867H38.125V85.0117H43.75V79.3867Z" fill="#CB8A9C"/>
<path d="M49.375 79.3867H43.75V85.0117H49.375V79.3867Z" fill="#FFF5F3"/>
<path d="M55 79.3867H49.375V85.0117H55V79.3867Z" fill="#FFF5F3"/>
<path d="M60.625 79.3867H55V85.0117H60.625V79.3867Z" fill="#FFF5F3"/>
<path d="M66.25 79.3867H60.625V85.0117H66.25V79.3867Z" fill="#FFEBF1"/>
<path d="M71.875 79.3867H66.25V85.0117H71.875V79.3867Z" fill="#B1657A"/>
<path d="M77.5 79.3867H71.875V85.0117H77.5V79.3867Z" fill="#CB8A9C"/>
<path d="M83.125 79.3867H77.5V85.0117H83.125V79.3867Z" fill="#1A080D"/>
<path d="M88.75 79.3867H83.125V85.0117H88.75V79.3867Z" fill="#202130"/>
<path d="M94.375 79.3867H88.75V85.0117H94.375V79.3867Z" fill="#323345"/>
<path d="M100 79.3867H94.375V85.0117H100V79.3867Z" fill="#202130"/>
<path d="M105.625 79.3867H100V85.0117H105.625V79.3867Z" fill="#202130"/>
<path d="M116.875 79.3867H111.25V85.0117H116.875V79.3867Z" fill="#161723"/>
<path d="M122.5 79.3867H116.875V85.0117H122.5V79.3867Z" fill="#323345"/>
<path d="M128.125 79.3867H122.5V85.0117H128.125V79.3867Z" fill="#323345"/>
<path d="M133.75 79.3867H128.125V85.0117H133.75V79.3867Z" fill="#323345"/>
<path d="M139.375 79.3867H133.75V85.0117H139.375V79.3867Z" fill="#161723"/>
<path d="M10 85.0117H4.375V90.6367H10V85.0117Z" fill="#161723"/>
<path d="M15.625 85.0117H10V90.6367H15.625V85.0117Z" fill="#161723"/>
<path d="M21.25 85.0117H15.625V90.6367H21.25V85.0117Z" fill="#323345"/>
<path d="M26.875 85.0117H21.25V90.6367H26.875V85.0117Z" fill="#FFF5F3"/>
<path d="M32.5 85.0117H26.875V90.6367H32.5V85.0117Z" fill="#FFEBF1"/>
<path d="M38.125 85.0117H32.5V90.6367H38.125V85.0117Z" fill="#CB8A9C"/>
<path d="M43.75 85.0117H38.125V90.6367H43.75V85.0117Z" fill="#E5BBC6"/>
<path d="M49.375 85.0117H43.75V90.6367H49.375V85.0117Z" fill="#FFF5F3"/>
<path d="M55 85.0117H49.375V90.6367H55V85.0117Z" fill="#FFF5F3"/>
<path d="M60.625 85.0117H55V90.6367H60.625V85.0117Z" fill="#FFF5F3"/>
<path d="M66.25 85.0117H60.625V90.6367H66.25V85.0117Z" fill="#FFEBF1"/>
<path d="M71.875 85.0117H66.25V90.6367H71.875V85.0117Z" fill="#CB8A9C"/>
<path d="M77.5 85.0117H71.875V90.6367H77.5V85.0117Z" fill="#E5BBC6"/>
<path d="M83.125 85.0117H77.5V90.6367H83.125V85.0117Z" fill="#202130"/>
<path d="M88.75 85.0117H83.125V90.6367H88.75V85.0117Z" fill="#323345"/>
<path d="M94.375 85.0117H88.75V90.6367H94.375V85.0117Z" fill="#202130"/>
<path d="M100 85.0117H94.375V90.6367H100V85.0117Z" fill="#202130"/>
<path d="M111.25 85.0117H105.625V90.6367H111.25V85.0117Z" fill="#161723"/>
<path d="M116.875 85.0117H111.25V90.6367H116.875V85.0117Z" fill="#323345"/>
<path d="M122.5 85.0117H116.875V90.6367H122.5V85.0117Z" fill="#323345"/>
<path d="M128.125 85.0117H122.5V90.6367H128.125V85.0117Z" fill="#323345"/>
<path d="M133.75 85.0117H128.125V90.6367H133.75V85.0117Z" fill="#323345"/>
<path d="M139.375 85.0117H133.75V90.6367H139.375V85.0117Z" fill="#161723"/>
<path d="M10 90.6367H4.375V96.2617H10V90.6367Z" fill="#161723"/>
<path d="M15.625 90.6367H10V96.2617H15.625V90.6367Z" fill="#323345"/>
<path d="M21.25 90.6367H15.625V96.2617H21.25V90.6367Z" fill="#323345"/>
<path d="M26.875 90.6367H21.25V96.2617H26.875V90.6367Z" fill="#323345"/>
<path d="M32.5 90.6367H26.875V96.2617H32.5V90.6367Z" fill="#FFF5F3"/>
<path d="M38.125 90.6367H32.5V96.2617H38.125V90.6367Z" fill="#FFF5F3"/>
<path d="M43.75 90.6367H38.125V96.2617H43.75V90.6367Z" fill="#FFF5F3"/>
<path d="M49.375 90.6367H43.75V96.2617H49.375V90.6367Z" fill="#FFF5F3"/>
<path d="M55 90.6367H49.375V96.2617H55V90.6367Z" fill="#FFF5F3"/>
<path d="M60.625 90.6367H55V96.2617H60.625V90.6367Z" fill="#FFF5F3"/>
<path d="M66.25 90.6367H60.625V96.2617H66.25V90.6367Z" fill="#FFF5F3"/>
<path d="M71.875 90.6367H66.25V96.2617H71.875V90.6367Z" fill="#FFF5F3"/>
<path d="M77.5 90.6367H71.875V96.2617H77.5V90.6367Z" fill="#FFF5F3"/>
<path d="M83.125 90.6367H77.5V96.2617H83.125V90.6367Z" fill="#202130"/>
<path d="M88.75 90.6367H83.125V96.2617H88.75V90.6367Z" fill="#202130"/>
<path d="M111.25 90.6367H105.625V96.2617H111.25V90.6367Z" fill="#161723"/>
<path d="M116.875 90.6367H111.25V96.2617H116.875V90.6367Z" fill="#323345"/>
<path d="M122.5 90.6367H116.875V96.2617H122.5V90.6367Z" fill="#323345"/>
<path d="M128.125 90.6367H122.5V96.2617H128.125V90.6367Z" fill="#323345"/>
<path d="M133.75 90.6367H128.125V96.2617H133.75V90.6367Z" fill="#323345"/>
<path d="M139.375 90.6367H133.75V96.2617H139.375V90.6367Z" fill="#161723"/>
<path d="M10 96.2617H4.375V101.887H10V96.2617Z" fill="#161723"/>
<path d="M15.625 96.2617H10V101.887H15.625V96.2617Z" fill="#323345"/>
<path d="M21.25 96.2617H15.625V101.887H21.25V96.2617Z" fill="#323345"/>
<path d="M26.875 96.2617H21.25V101.887H26.875V96.2617Z" fill="#323345"/>
<path d="M32.5 96.2617H26.875V101.887H32.5V96.2617Z" fill="#323345"/>
<path d="M38.125 96.2617H32.5V101.887H38.125V96.2617Z" fill="#323345"/>
<path d="M43.75 96.2617H38.125V101.887H43.75V96.2617Z" fill="#CB8A9C"/>
<path d="M49.375 96.2617H43.75V101.887H49.375V96.2617Z" fill="#F2A8BC"/>
<path d="M55 96.2617H49.375V101.887H55V96.2617Z" fill="#CB8A9C"/>
<path d="M60.625 96.2617H55V101.887H60.625V96.2617Z" fill="#E1CFCC"/>
<path d="M66.25 96.2617H60.625V101.887H66.25V96.2617Z" fill="#E1CFCC"/>
<path d="M71.875 96.2617H66.25V101.887H71.875V96.2617Z" fill="#CB8A9C"/>
<path d="M77.5 96.2617H71.875V101.887H77.5V96.2617Z" fill="#F2A8BC"/>
<path d="M83.125 96.2617H77.5V101.887H83.125V96.2617Z" fill="#F2A8BC"/>
<path d="M88.75 96.2617H83.125V101.887H88.75V96.2617Z" fill="#412C32"/>
<path d="M111.25 96.2617H105.625V101.887H111.25V96.2617Z" fill="#161723"/>
<path d="M116.875 96.2617H111.25V101.887H116.875V96.2617Z" fill="#323345"/>
<path d="M122.5 96.2617H116.875V101.887H122.5V96.2617Z" fill="#323345"/>
<path d="M128.125 96.2617H122.5V101.887H128.125V96.2617Z" fill="#323345"/>
<path d="M133.75 96.2617H128.125V101.887H133.75V96.2617Z" fill="#323345"/>
<path d="M139.375 96.2617H133.75V101.887H139.375V96.2617Z" fill="#161723"/>
<path d="M4.375 101.887H-1.25V107.512H4.375V101.887Z" fill="#161723"/>
<path d="M10 101.887H4.375V107.512H10V101.887Z" fill="#323345"/>
<path d="M15.625 101.887H10V107.512H15.625V101.887Z" fill="#323345"/>
<path d="M21.25 101.887H15.625V107.512H21.25V101.887Z" fill="#323345"/>
<path d="M26.875 101.887H21.25V107.512H26.875V101.887Z" fill="#323345"/>
<path d="M32.5 101.887H26.875V107.512H32.5V101.887Z" fill="#323345"/>
<path d="M38.125 101.887H32.5V107.512H38.125V101.887Z" fill="#CB8A9C"/>
<path d="M43.75 101.887H38.125V107.512H43.75V101.887Z" fill="#F2A8BC"/>
<path d="M49.375 101.887H43.75V107.512H49.375V101.887Z" fill="#161723"/>
<path d="M55 101.887H49.375V107.512H55V101.887Z" fill="#161723"/>
<path d="M60.625 101.887H55V107.512H60.625V101.887Z" fill="#CB8A9C"/>
<path d="M66.25 101.887H60.625V107.512H66.25V101.887Z" fill="#CB8A9C"/>
<path d="M71.875 101.887H66.25V107.512H71.875V101.887Z" fill="#161723"/>
<path d="M77.5 101.887H71.875V107.512H77.5V101.887Z" fill="#161723"/>
<path d="M83.125 101.887H77.5V107.512H83.125V101.887Z" fill="#F2A8BC"/>
<path d="M88.75 101.887H83.125V107.512H88.75V101.887Z" fill="#F2A8BC"/>
<path d="M94.375 101.887H88.75V107.512H94.375V101.887Z" fill="#412C32"/>
<path d="M105.625 101.887H100V107.512H105.625V101.887Z" fill="#161723"/>
<path d="M111.25 101.887H105.625V107.512H111.25V101.887Z" fill="#323345"/>
<path d="M116.875 101.887H111.25V107.512H116.875V101.887Z" fill="#323345"/>
<path d="M122.5 101.887H116.875V107.512H122.5V101.887Z" fill="#323345"/>
<path d="M128.125 101.887H122.5V107.512H128.125V101.887Z" fill="#323345"/>
<path d="M133.75 101.887H128.125V107.512H133.75V101.887Z" fill="#323345"/>
<path d="M139.375 101.887H133.75V107.512H139.375V101.887Z" fill="#161723"/>
<path d="M4.375 107.512H-1.25V113.137H4.375V107.512Z" fill="#161723"/>
<path d="M10 107.512H4.375V113.137H10V107.512Z" fill="#323345"/>
<path d="M15.625 107.512H10V113.137H15.625V107.512Z" fill="#323345"/>
<path d="M21.25 107.512H15.625V113.137H21.25V107.512Z" fill="#323345"/>
<path d="M26.875 107.512H21.25V113.137H26.875V107.512Z" fill="#323345"/>
<path d="M32.5 107.512H26.875V113.137H32.5V107.512Z" fill="#323345"/>
<path d="M38.125 107.512H32.5V113.137H38.125V107.512Z" fill="#CB8A9C"/>
<path d="M43.75 107.512H38.125V113.137H43.75V107.512Z" fill="#F2A8BC"/>
<path d="M49.375 107.512H43.75V113.137H49.375V107.512Z" fill="#161723"/>
<path d="M55 107.512H49.375V113.137H55V107.512Z" fill="#2A2B38"/>
<path d="M60.625 107.512H55V113.137H60.625V107.512Z" fill="#161723"/>
<path d="M66.25 107.512H60.625V113.137H66.25V107.512Z" fill="#161723"/>
<path d="M71.875 107.512H66.25V113.137H71.875V107.512Z" fill="#2A2B38"/>
<path d="M77.5 107.512H71.875V113.137H77.5V107.512Z" fill="#161723"/>
<path d="M83.125 107.512H77.5V113.137H83.125V107.512Z" fill="#F2A8BC"/>
<path d="M88.75 107.512H83.125V113.137H88.75V107.512Z" fill="#F2A8BC"/>
<path d="M94.375 107.512H88.75V113.137H94.375V107.512Z" fill="#412C32"/>
<path d="M105.625 107.512H100V113.137H105.625V107.512Z" fill="#161723"/>
<path d="M111.25 107.512H105.625V113.137H111.25V107.512Z" fill="#323345"/>
<path d="M116.875 107.512H111.25V113.137H116.875V107.512Z" fill="#323345"/>
<path d="M122.5 107.512H116.875V113.137H122.5V107.512Z" fill="#323345"/>
<path d="M128.125 107.512H122.5V113.137H128.125V107.512Z" fill="#323345"/>
<path d="M133.75 107.512H128.125V113.137H133.75V107.512Z" fill="#323345"/>
<path d="M139.375 107.512H133.75V113.137H139.375V107.512Z" fill="#161723"/>
<path d="M4.375 113.137H-1.25V118.762H4.375V113.137Z" fill="#161723"/>
<path d="M10 113.137H4.375V118.762H10V113.137Z" fill="#161723"/>
<path d="M15.625 113.137H10V118.762H15.625V113.137Z" fill="#161723"/>
<path d="M21.25 113.137H15.625V118.762H21.25V113.137Z" fill="#161723"/>
<path d="M26.875 113.137H21.25V118.762H26.875V113.137Z" fill="#161723"/>
<path d="M32.5 113.137H26.875V118.762H32.5V113.137Z" fill="#161723"/>
<path d="M38.125 113.137H32.5V118.762H38.125V113.137Z" fill="#412C32"/>
<path d="M43.75 113.137H38.125V118.762H43.75V113.137Z" fill="#412C32"/>
<path d="M49.375 113.137H43.75V118.762H49.375V113.137Z" fill="#161723"/>
<path d="M55 113.137H49.375V118.762H55V113.137Z" fill="#2A2B38"/>
<path d="M60.625 113.137H55V118.762H60.625V113.137Z" fill="#161723"/>
<path d="M66.25 113.137H60.625V118.762H66.25V113.137Z" fill="#161723"/>
<path d="M71.875 113.137H66.25V118.762H71.875V113.137Z" fill="#2A2B38"/>
<path d="M77.5 113.137H71.875V118.762H77.5V113.137Z" fill="#161723"/>
<path d="M83.125 113.137H77.5V118.762H83.125V113.137Z" fill="#412C32"/>
<path d="M88.75 113.137H83.125V118.762H88.75V113.137Z" fill="#412C32"/>
<path d="M94.375 113.137H88.75V118.762H94.375V113.137Z" fill="#412C32"/>
<path d="M105.625 113.137H100V118.762H105.625V113.137Z" fill="#161723"/>
<path d="M111.25 113.137H105.625V118.762H111.25V113.137Z" fill="#161723"/>
<path d="M116.875 113.137H111.25V118.762H116.875V113.137Z" fill="#161723"/>
<path d="M122.5 113.137H116.875V118.762H122.5V113.137Z" fill="#161723"/>
<path d="M128.125 113.137H122.5V118.762H128.125V113.137Z" fill="#161723"/>
<path d="M133.75 113.137H128.125V118.762H133.75V113.137Z" fill="#161723"/>
<path d="M49.375 118.762H43.75V124.387H49.375V118.762Z" fill="#161723"/>
<path d="M55 118.762H49.375V124.387H55V118.762Z" fill="#161723"/>
<path d="M71.875 118.762H66.25V124.387H71.875V118.762Z" fill="#161723"/>
<path d="M77.5 118.762H71.875V124.387H77.5V118.762Z" fill="#161723"/>
</g>
</g>
<defs>
<clipPath id="clip0_4669_9867">
<rect width="139" height="124" fill="white" transform="translate(0 0.386719)"/>
</clipPath>
<clipPath id="clip1_4669_9867">
<rect width="180" height="180" fill="white" transform="translate(-35 -55.6133)"/>
</clipPath>
</defs>
</svg>
