<svg width="25" height="25" viewBox="0 0 25 25" fill="none" xmlns="http://www.w3.org/2000/svg">
<path d="M8.57227 13.0508L8.57227 11.0508L10.5723 11.0508L10.5723 13.0508L8.57227 13.0508ZM10.5723 11.0508L10.5723 9.05078L12.5723 9.05078L12.5723 11.0508L10.5723 11.0508ZM10.5723 15.0508L10.5723 13.0508L12.5723 13.0508L12.5723 15.0508L10.5723 15.0508ZM12.5723 9.05078L12.5723 7.05078L14.5723 7.05078L14.5723 9.05078L12.5723 9.05078ZM12.5723 17.0508L12.5723 15.0508L14.5723 15.0508L14.5723 17.0508L12.5723 17.0508ZM14.5723 7.05078L14.5723 5.05078L16.5723 5.05078L16.5723 7.05078L14.5723 7.05078ZM14.5723 19.0508L14.5723 17.0508L16.5723 17.0508L16.5723 19.0508L14.5723 19.0508Z" fill="black"/>
</svg>
