<svg width="21" height="21" viewBox="0 0 21 21" fill="none" xmlns="http://www.w3.org/2000/svg">
<g clip-path="url(#clip0_6450_1870)">
<path d="M11.4805 20.8457H9.66406V18.8455H11.4805V20.8457Z" fill="#FD51A7"/>
<path d="M9.66406 18.8455H7.8457V16.8453H9.66406V18.8455Z" fill="#FD51A7"/>
<path d="M13.2988 18.8455H11.4805V16.8453H13.2988V18.8455Z" fill="#FD51A7"/>
<path d="M7.8457 16.8453H6.02734V14.8451H7.8457V16.8453Z" fill="#FD51A7"/>
<path d="M15.1172 16.8453H13.2988V14.8451H15.1172V16.8453Z" fill="#FD51A7"/>
<path d="M6.02734 14.8451H4.20898V12.8448H6.02734V14.8451Z" fill="#FD51A7"/>
<path d="M16.9355 14.8451H15.1172V12.8448H16.9355V14.8451Z" fill="#FD51A7"/>
<path d="M4.20898 12.8448H2.39062V10.8468H4.20898V12.8448Z" fill="#FD51A7"/>
<path d="M18.7539 12.8448H16.9355V10.8468H18.7539V12.8448Z" fill="#FD51A7"/>
<path d="M2.39062 10.8468H0.572266V4.84613H2.39062V10.8468Z" fill="#FD51A7"/>
<path d="M20.5723 10.8468H18.7539V4.84613H20.5723V10.8468Z" fill="#FD51A7"/>
<path d="M11.4805 6.84635H9.66406V4.84613H11.4805V6.84635Z" fill="#FD51A7"/>
<path d="M4.20898 4.84613H2.39062V2.84592H4.20898V4.84613Z" fill="#FD51A7"/>
<path d="M9.66406 4.84613H7.8457V2.84592H9.66406V4.84613Z" fill="#FD51A7"/>
<path d="M13.2988 4.84613H11.4805V2.84592H13.2988V4.84613Z" fill="#FD51A7"/>
<path d="M18.7539 4.84613H16.9355V2.84592H18.7539V4.84613Z" fill="#FD51A7"/>
<path d="M7.8457 2.84592H4.20898V0.845703H7.8457V2.84592Z" fill="#FD51A7"/>
<path d="M16.9355 2.84592H13.2988V0.845703H16.9355V2.84592Z" fill="#FD51A7"/>
<path d="M9.66406 18.8455H11.4805V16.8453H13.2988V14.8451H15.1172V12.8448H16.9355V10.8468H18.7539V4.84613H16.9355V2.84592H13.2988V4.84613H11.4805V6.84635H9.66406V4.84613H7.8457V2.84592H4.20898V4.84613H2.39062V10.8468H4.20898V12.8448H6.02734V14.8451H7.8457V16.8453H9.66406V18.8455Z" fill="#FD51A7"/>
</g>
<defs>
<clipPath id="clip0_6450_1870">
<rect width="20" height="20" fill="white" transform="translate(0.572266 0.845703)"/>
</clipPath>
</defs>
</svg>
