<svg width="17" height="16" viewBox="0 0 17 16" fill="none" xmlns="http://www.w3.org/2000/svg">
<path d="M13.0167 15.5508H4.12782V13.8841H13.0167V15.5508Z" fill="#D591D7"/>
<path d="M4.12782 13.8841H2.35004V12.2174H4.12782V13.8841Z" fill="#D591D7"/>
<path d="M14.7945 13.8841H13.0167V12.2174H14.7945V13.8841Z" fill="#D591D7"/>
<path d="M11.2389 13.0508H5.9056V11.3841H11.2389V13.0508Z" fill="#D591D7"/>
<path d="M2.35004 12.2174H0.572266V3.88411H2.35004V12.2174Z" fill="#D591D7"/>
<path d="M16.5723 12.2174H14.7945V3.88411H16.5723V12.2174Z" fill="#D591D7"/>
<path d="M5.9056 11.3841H4.12782V9.71745H5.9056V11.3841Z" fill="#D591D7"/>
<path d="M13.0167 11.3841H11.2389V9.71745H13.0167V11.3841Z" fill="#D591D7"/>
<path d="M5.9056 8.05078H4.12782V6.38412H5.9056V8.05078Z" fill="#D591D7"/>
<path d="M13.0167 8.05078H11.2389V6.38412H13.0167V8.05078Z" fill="#D591D7"/>
<path d="M4.12782 3.88411H2.35004V2.21745H4.12782V3.88411Z" fill="#D591D7"/>
<path d="M14.7945 3.88411H13.0167V2.21745H14.7945V3.88411Z" fill="#D591D7"/>
<path d="M13.0167 2.21745H8.57227H4.12782V0.550781H13.0167V2.21745Z" fill="#D591D7"/>
</svg>
