<svg width="11" height="11" viewBox="0 0 11 11" fill="none" xmlns="http://www.w3.org/2000/svg">
<g clip-path="url(#clip0_6061_8957)">
<path d="M6.02637 9.6416H5.11816V8.73242H6.02637V9.6416ZM5.11816 8.73242H4.20898V7.82324H5.11816V8.73242ZM6.93555 8.73242H6.02637V7.82324H6.93555V8.73242ZM4.20898 7.82324H3.2998V6.91406H4.20898V7.82324ZM7.84473 7.82324H6.93555V6.91406H7.84473V7.82324ZM3.2998 6.91406H2.39062V6.00488H3.2998V6.91406ZM8.75391 6.91406H7.84473V6.00488H8.75391V6.91406ZM2.39062 6.00488H1.48145V5.09668H2.39062V6.00488ZM9.66309 6.00488H8.75391V5.09668H9.66309V6.00488ZM1.48145 5.09668H0.572266V2.36914H1.48145V5.09668ZM10.5723 5.09668H9.66309V2.36914H10.5723V5.09668ZM6.02637 3.27832H5.11816V2.36914H6.02637V3.27832ZM2.39062 2.36914H1.48145V1.45996H2.39062V2.36914ZM5.11816 2.36914H4.20898V1.45996H5.11816V2.36914ZM6.93555 2.36914H6.02637V1.45996H6.93555V2.36914ZM9.66309 2.36914H8.75391V1.45996H9.66309V2.36914ZM4.20898 1.45996H2.39062V0.550781H4.20898V1.45996ZM8.75391 1.45996H6.93555V0.550781H8.75391V1.45996Z" fill="#5F6368"/>
</g>
<defs>
<clipPath id="clip0_6061_8957">
<rect width="10" height="10" fill="white" transform="translate(0.572266 0.550781)"/>
</clipPath>
</defs>
</svg>
