<svg width="11" height="11" viewBox="0 0 11 11" fill="none" xmlns="http://www.w3.org/2000/svg">
<g clip-path="url(#clip0_6075_6498)">
<path d="M10.5723 3.17904V5.40126H10.1177V5.8457H9.66317V6.29015H9.20863V6.73459H8.75408V7.17904H8.29954V7.62348H7.84499V8.06793H7.39045V8.51237H6.9359V8.95681H6.48136V9.40126H6.02681V9.8457H5.11772V9.40126H4.66317V8.95681H4.20863V8.51237H3.75408V8.06793H3.29954V7.62348H2.84499V7.17904H2.39045V6.73459H1.9359V6.29015H1.48136V5.8457H1.02681V5.40126H0.572266V3.17904H1.02681V2.73459H1.48136V2.29015H1.9359V1.8457H4.66317V2.29015H5.11772V2.73459H6.02681V2.29015H6.48136V1.8457H9.20863V2.29015H9.66317V2.73459H10.1177V3.17904H10.5723Z" fill="#DCAFDD"/>
</g>
<defs>
<clipPath id="clip0_6075_6498">
<rect width="10" height="10" fill="white" transform="translate(0.572266 0.345703)"/>
</clipPath>
</defs>
</svg>
