<svg width="15" height="15" viewBox="0 0 15 15" fill="none" xmlns="http://www.w3.org/2000/svg">
<path d="M11.0721 3.26204V2.67871H4.0721V3.26204H3.48877V10.262H11.6554V3.26204H11.0721ZM9.90544 5.59538H9.3221V6.17871H8.73877V6.76204H8.15544V7.34538H7.5721V7.92871H6.40544V7.34538H5.8221V6.76204H5.23877V6.17871H5.8221V5.59538H6.40544V6.17871H7.5721V5.59538H8.15544V5.01204H8.73877V4.42871H9.3221V5.01204H9.90544V5.59538Z" fill="#DCAFDD"/>
<path d="M13.9891 9.09603V11.4294H13.4058V12.0127H1.7391V11.4294H1.15576V9.09603H1.7391V8.5127H2.90576V9.67936H2.32243V10.846H12.8224V9.67936H12.2391V8.5127H13.4058V9.09603H13.9891Z" fill="#DCAFDD"/>
</svg>
