<?xml version="1.0" encoding="UTF-8" ?>
<svg version="1.1" width="25750" height="25750" xmlns="http://www.w3.org/2000/svg" shape-rendering="crispEdges">
<rect x="8852" y="2414" width="8047" height="805" fill="#FF8EF6" />
<rect x="6438" y="3219" width="2414" height="805" fill="#FF8EF6" />
<rect x="8852" y="3219" width="8047" height="805" fill="#FFEEFD" />
<rect x="16899" y="3219" width="2414" height="805" fill="#FF8EF6" />
<rect x="4829" y="4024" width="1609" height="804" fill="#FF8EF6" />
<rect x="6438" y="4024" width="2414" height="804" fill="#FFEEFD" />
<rect x="8852" y="4024" width="8047" height="5632" fill="#FFD3FB" />
<rect x="16899" y="4024" width="2414" height="804" fill="#FFEEFD" />
<rect x="19313" y="4024" width="1609" height="804" fill="#FF8EF6" />
<rect x="3219" y="4828" width="1610" height="805" fill="#FF8EF6" />
<rect x="4829" y="4828" width="1609" height="805" fill="#FFEEFD" />
<rect x="6438" y="4828" width="2414" height="4828" fill="#FFD3FB" />
<rect x="16899" y="4828" width="2414" height="4828" fill="#FFD3FB" />
<rect x="19313" y="4828" width="1609" height="805" fill="#FFEEFD" />
<rect x="20922" y="4828" width="1610" height="805" fill="#FF8EF6" />
<rect x="2415" y="5633" width="804" height="805" fill="#FF8EF6" />
<rect x="3219" y="5633" width="1610" height="805" fill="#FFEEFD" />
<rect x="4829" y="5633" width="1609" height="4023" fill="#FFD3FB" />
<rect x="19313" y="5633" width="1609" height="4023" fill="#FFD3FB" />
<rect x="20922" y="5633" width="1610" height="805" fill="#FFEEFD" />
<rect x="22532" y="5633" width="804" height="805" fill="#FF8EF6" />
<rect x="1610" y="6438" width="805" height="804" fill="#FF8EF6" />
<rect x="2415" y="6438" width="804" height="804" fill="#FFEEFD" />
<rect x="3219" y="6438" width="1610" height="8851" fill="#FFD3FB" />
<rect x="20922" y="6438" width="1610" height="8851" fill="#FFD3FB" />
<rect x="22532" y="6438" width="804" height="804" fill="#FFEEFD" />
<rect x="23336" y="6438" width="805" height="804" fill="#FF8EF6" />
<rect x="805" y="7242" width="805" height="1610" fill="#FF8EF6" />
<rect x="1610" y="7242" width="805" height="1610" fill="#FFEEFD" />
<rect x="2415" y="7242" width="804" height="7242" fill="#FFD3FB" />
<rect x="22532" y="7242" width="1609" height="5633" fill="#FFD3FB" />
<rect x="24141" y="7242" width="805" height="1610" fill="#231F20" />
<rect x="0" y="8852" width="805" height="4023" fill="#FF8EF6" />
<rect x="805" y="8852" width="805" height="4023" fill="#FFEEFD" />
<rect x="1610" y="8852" width="805" height="5632" fill="#FFD3FB" />
<rect x="24141" y="8852" width="805" height="4023" fill="#DCAFDD" />
<rect x="24946" y="8852" width="804" height="4023" fill="#231F20" />
<rect x="4829" y="9656" width="804" height="6438" fill="#FFD3FB" />
<rect x="5633" y="9656" width="2414" height="2414" fill="#231F20" />
<rect x="8047" y="9656" width="4024" height="7242" fill="#FFD3FB" />
<rect x="12071" y="9656" width="2414" height="2414" fill="#231F20" />
<rect x="14485" y="9656" width="4023" height="8047" fill="#FFD3FB" />
<rect x="18508" y="9656" width="2414" height="2414" fill="#231F20" />
<rect x="5633" y="12070" width="2414" height="4024" fill="#FFD3FB" />
<rect x="12071" y="12070" width="2414" height="5633" fill="#FFD3FB" />
<rect x="18508" y="12070" width="2414" height="4024" fill="#FFD3FB" />
<rect x="805" y="12875" width="805" height="805" fill="#FF8EF6" />
<rect x="22532" y="12875" width="804" height="1609" fill="#FFD3FB" />
<rect x="23336" y="12875" width="805" height="1609" fill="#DCAFDD" />
<rect x="24141" y="12875" width="805" height="1609" fill="#231F20" />
<rect x="805" y="13680" width="805" height="804" fill="#231F20" />
<rect x="1610" y="14484" width="805" height="805" fill="#231F20" />
<rect x="2415" y="14484" width="804" height="805" fill="#DCAFDD" />
<rect x="22532" y="14484" width="804" height="805" fill="#DCAFDD" />
<rect x="23336" y="14484" width="805" height="805" fill="#231F20" />
<rect x="2415" y="15289" width="804" height="805" fill="#231F20" />
<rect x="3219" y="15289" width="1610" height="805" fill="#DCAFDD" />
<rect x="20922" y="15289" width="1610" height="805" fill="#DCAFDD" />
<rect x="22532" y="15289" width="804" height="805" fill="#231F20" />
<rect x="3219" y="16094" width="1610" height="804" fill="#231F20" />
<rect x="4829" y="16094" width="1609" height="804" fill="#DCAFDD" />
<rect x="6438" y="16094" width="1609" height="804" fill="#FFD3FB" />
<rect x="18508" y="16094" width="805" height="804" fill="#FFD3FB" />
<rect x="19313" y="16094" width="2414" height="804" fill="#DCAFDD" />
<rect x="21727" y="16094" width="805" height="804" fill="#231F20" />
<rect x="4829" y="16898" width="1609" height="805" fill="#231F20" />
<rect x="6438" y="16898" width="2414" height="805" fill="#DCAFDD" />
<rect x="8852" y="16898" width="3219" height="805" fill="#FFD3FB" />
<rect x="18508" y="16898" width="1610" height="805" fill="#DCAFDD" />
<rect x="20118" y="16898" width="1609" height="805" fill="#231F20" />
<rect x="6438" y="17703" width="2414" height="805" fill="#231F20" />
<rect x="8852" y="17703" width="4828" height="805" fill="#DCAFDD" />
<rect x="13680" y="17703" width="4024" height="805" fill="#FFD3FB" />
<rect x="17704" y="17703" width="804" height="805" fill="#DCAFDD" />
<rect x="18508" y="17703" width="1610" height="805" fill="#231F20" />
<rect x="8852" y="18508" width="4828" height="804" fill="#231F20" />
<rect x="13680" y="18508" width="805" height="4023" fill="#DCAFDD" />
<rect x="14485" y="18508" width="2414" height="804" fill="#FFD3FB" />
<rect x="16899" y="18508" width="805" height="804" fill="#DCAFDD" />
<rect x="17704" y="18508" width="804" height="804" fill="#231F20" />
<rect x="12875" y="19312" width="805" height="4828" fill="#231F20" />
<rect x="14485" y="19312" width="1609" height="805" fill="#FFD3FB" />
<rect x="16094" y="19312" width="805" height="805" fill="#DCAFDD" />
<rect x="16899" y="19312" width="805" height="805" fill="#231F20" />
<rect x="14485" y="20117" width="805" height="805" fill="#FFD3FB" />
<rect x="15290" y="20117" width="804" height="805" fill="#DCAFDD" />
<rect x="16094" y="20117" width="805" height="805" fill="#231F20" />
<rect x="14485" y="20922" width="805" height="804" fill="#DCAFDD" />
<rect x="15290" y="20922" width="804" height="804" fill="#231F20" />
<rect x="14485" y="21726" width="805" height="805" fill="#231F20" />
<rect x="13680" y="22531" width="805" height="805" fill="#231F20" />
</svg>